<?xml version="1.0" encoding="utf-8"?>
<!-- Generator: Adobe Illustrator 17.1.0, SVG Export Plug-In . SVG Version: 6.00 Build 0)  -->
<!DOCTYPE svg PUBLIC "-//W3C//DTD SVG 1.1//EN" "http://www.w3.org/Graphics/SVG/1.1/DTD/svg11.dtd">
<svg version="1.1" id="Layer_1" xmlns="http://www.w3.org/2000/svg" xmlns:xlink="http://www.w3.org/1999/xlink" x="0px" y="0px"
	 width="222px" height="428px" viewBox="0 0 222 428" enable-background="new 0 0 222 428" xml:space="preserve">
<polygon fill="#DBDBDB" points="3,66 1.5,66 0,67.4 0,134.6 1.5,136 3,136 "/>
<polygon fill="#DBDBDB" points="218,100 219.5,100 221,102.8 221,133.2 219.5,136 218,136 "/>
<g>
	<path fill="#F4F4F4" d="M216.5,39.2C215.6-1.3,175.6,2.1,110,2.1C44.4,2.1,4.4-1.3,3.5,39.2c-1.1,45.4,0,128.9,0,171.5
		c0,31.9,0.2,126.1,1.3,171.5c0.4,18.1,6.6,29.5,20.9,36.6c17.7,8.8,47.2,7.1,84.3,7.1c37.1,0,66.5,1.7,84.3-7.1
		c14.4-7.1,20.5-18.5,20.9-36.6c1.1-45.4,1.3-139.5,1.3-171.5C216.5,168.1,217.6,84.6,216.5,39.2z"/>
	
		<radialGradient id="SVGID_1_" cx="110.0001" cy="214" r="169.8184" gradientTransform="matrix(1 0 0 1.0015 0 -0.3177)" gradientUnits="userSpaceOnUse">
		<stop  offset="0" style="stop-color:#AAAAAA"/>
		<stop  offset="1" style="stop-color:#CCCCCC"/>
	</radialGradient>
	<path fill="url(#SVGID_1_)" d="M136.4,2c49.7,0,79.3,2.5,80.1,37.2c1.1,45.4,0,128.9,0,171.5c0,31.9-0.2,126.1-1.3,171.5
		c-0.4,18.1-6.6,29.5-20.9,36.6c-12.8,6.4-31.8,7.2-55.4,7.2c-9,0-18.6-0.1-28.9-0.1c-10.2,0-19.9,0.1-28.9,0.1
		c-23.6,0-42.6-0.9-55.4-7.2c-14.4-7.1-20.5-18.5-20.9-36.6c-1.1-45.4-1.3-139.5-1.3-171.5c0-42.6-1.1-126.1,0-171.5
		C4.3,4.5,33.8,2,83.6,2c8.3,0,17.1,0.1,26.4,0.1C119.3,2.1,128.2,2,136.4,2 M136.4,0c-4,0-8.2,0-12.4,0c-4.5,0-9.2,0-14,0
		c-4.8,0-9.5,0-14,0c-4.3,0-8.4,0-12.4,0C60.7,0,39,0.4,24.5,5.7C9.2,11.2,1.9,21.9,1.5,39.2C0.7,70.9,1,122,1.3,163.1
		c0.1,17.9,0.2,34.8,0.2,47.6c0,32.2,0.2,125.8,1.3,171.5c0.5,19.2,7.3,31,22,38.3c12.6,6.2,30.2,7.4,56.3,7.4c4.4,0,8.8,0,13.5-0.1
		c5,0,10.1-0.1,15.4-0.1c5.3,0,10.4,0,15.4,0.1c4.7,0,9.2,0.1,13.5,0.1c26.1,0,43.7-1.2,56.3-7.4c14.8-7.3,21.6-19.1,22-38.3
		c1.1-45.7,1.3-139.3,1.3-171.5c0-12.9,0.1-29.8,0.2-47.6c0.2-41.1,0.5-92.2-0.2-123.9c-0.4-17.3-7.7-27.9-23-33.5
		C181,0.4,159.3,0,136.4,0L136.4,0z"/>
</g>
<g>
	<path fill="#FFFFFF" d="M136.4,5c51.8,0,76.4,3.4,77.1,34.3c0.7,31.6,0.4,82.7,0.2,123.7c-0.1,17.9-0.2,34.8-0.2,47.7
		c0,32.2-0.2,125.8-1.3,171.4c-0.4,17.3-6.2,27.5-19.3,34c-11.7,5.8-28.7,6.9-54.1,6.9c-4.3,0-8.8,0-13.5-0.1
		c-5,0-10.1-0.1-15.4-0.1c-5.3,0-10.4,0-15.4,0.1c-4.7,0-9.1,0.1-13.5,0.1c-25.4,0-42.4-1.1-54.1-6.9c-13.1-6.5-18.9-16.6-19.3-34
		c-1.1-45.7-1.3-139.2-1.3-171.4c0-12.9-0.1-29.8-0.2-47.7C6,122,5.7,70.9,6.5,39.3C7.2,8.4,31.7,5,83.6,5c4,0,8.1,0,12.4,0
		c4.5,0,9.2,0,14,0c4.8,0,9.5,0,14,0C128.3,5,132.4,5,136.4,5 M136.4,2c-8.3,0-17.1,0.1-26.4,0.1C100.7,2.1,91.8,2,83.6,2
		C33.8,2,4.3,4.5,3.5,39.2c-1.1,45.4,0,128.9,0,171.5c0,31.9,0.2,126.1,1.3,171.5c0.4,18.1,6.6,29.5,20.9,36.6
		c12.8,6.4,31.8,7.2,55.4,7.2c9,0,18.6-0.1,28.9-0.1c10.2,0,19.9,0.1,28.9,0.1c23.6,0,42.6-0.9,55.4-7.2
		c14.4-7.1,20.5-18.5,20.9-36.6c1.1-45.4,1.3-139.5,1.3-171.5c0-42.6,1.1-126.1,0-171.5C215.7,4.5,186.2,2,136.4,2L136.4,2z"/>
</g>
<path fill="#DBDBDB" stroke="#BABABA" stroke-miterlimit="10" d="M133.8,403.5c0-2.1-2-3.5-4.4-3.5H88.6c-2.4,0-4.4,1.4-4.4,3.5
	c0,0-0.4,3,0,5.9c0.3,2.5,3.3,3.5,6.8,3.5h36.2c3.4,0,6.5-1,6.8-3.5C134.2,406.5,133.8,403.5,133.8,403.5z"/>
<path fill="#DBDBDB" d="M87.5,12h43.1c1.4,0,2.5,1.1,2.5,2.5c0,1.4-1.1,2.5-2.5,2.5H87.5c-1.4,0-2.5-1.1-2.5-2.5
	C85,13.1,86.1,12,87.5,12z"/>
<circle cx="178.1" cy="16.5" r="3.4"/>
<circle cx="152.1" cy="13.1" r="3.6"/>
<circle cx="141.5" cy="12.7" r="3.7"/>
<circle cx="73.5" cy="12.7" r="3.7"/>
<rect x="11" y="41" fill="#3097D4" width="196" height="345"/>
<g>
	<linearGradient id="SVGID_2_" gradientUnits="userSpaceOnUse" x1="154.2925" y1="198" x2="65.3597" y2="198">
		<stop  offset="0" style="stop-color:#0D5893"/>
		<stop  offset="1" style="stop-color:#2C88C8"/>
	</linearGradient>
	<path fill="url(#SVGID_2_)" d="M155,228.9c0,7.8-6.3,14.1-14.1,14.1H79.1c-7.8,0-14.1-6.3-14.1-14.1v-61.9
		c0-7.8,6.3-14.1,14.1-14.1h61.9c7.8,0,14.1,6.3,14.1,14.1V228.9z"/>
	<path fill="#67C3FD" d="M155,224.3c0,7.8-6.3,14.1-14.1,14.1H79.1c-7.8,0-14.1-6.3-14.1-14.1v-57.2c0-7.8,6.3-14.1,14.1-14.1h61.9
		c7.8,0,14.1,6.3,14.1,14.1V224.3z"/>
	<path fill="#3AA2E6" d="M146.4,154.1l-78.8,78.3c2.5,3.6,6.7,6,11.5,6h61.9c7.8,0,14.1-6.3,14.1-14.1v-57.2
		C155,161.2,151.4,156.2,146.4,154.1z"/>
	<linearGradient id="SVGID_3_" gradientUnits="userSpaceOnUse" x1="100.8891" y1="193.6624" x2="157.4068" y2="250.1801">
		<stop  offset="0" style="stop-color:#0D5893;stop-opacity:0.9"/>
		<stop  offset="1" style="stop-color:#3AA2E6;stop-opacity:0"/>
	</linearGradient>
	<path fill="url(#SVGID_3_)" d="M138.7,191.1l-4.4-0.1l-15-15l-35.7,9.2l9.2,9.2l0.7,5.3l2.7,5.4l2.3,1.2l-15.7,9.6l22.4,22.4h35.7
		c7.8,0,14.1-6.3,14.1-14.1v-16.8L138.7,191.1z"/>
	<path fill="#FFFFFF" d="M119.8,186.1c0,0.5-0.4,0.8-0.8,0.8H83.3c-0.5,0-0.8-0.4-0.8-0.8v-9.3c0-0.5,0.4-0.8,0.8-0.8h35.7
		c0.5,0,0.8,0.4,0.8,0.8V186.1z"/>
	<path fill="#FFFFFF" d="M138.9,201c0,0.5-0.4,0.8-0.8,0.8H93c-0.5,0-0.8-0.4-0.8-0.8v-9.3c0-0.5,0.4-0.8,0.8-0.8h45
		c0.5,0,0.8,0.4,0.8,0.8V201z"/>
	<path fill="#FFFFFF" d="M130.8,215.4c0,0.5-0.4,0.8-0.8,0.8H83.3c-0.5,0-0.8-0.4-0.8-0.8v-9.3c0-0.5,0.4-0.8,0.8-0.8H130
		c0.5,0,0.8,0.4,0.8,0.8V215.4z"/>
</g>
<linearGradient id="SVGID_4_" gradientUnits="userSpaceOnUse" x1="139.6702" y1="45.4148" x2="139.6702" y2="308.4153">
	<stop  offset="0" style="stop-color:#FFFFFF"/>
	<stop  offset="1" style="stop-color:#FFFFFF;stop-opacity:0.5"/>
</linearGradient>
<path opacity="0.14" fill="url(#SVGID_4_)" d="M63,4.1l152,357.8c0,0,1.4-303.2,1.4-322.1s-7-34.3-53.2-36.4
	C116.9,1.3,63,4.1,63,4.1z"/>
</svg>
