<?xml version="1.0" encoding="utf-8"?>
<!-- Generator: Adobe Illustrator 17.1.0, SVG Export Plug-In . SVG Version: 6.00 Build 0)  -->
<!DOCTYPE svg PUBLIC "-//W3C//DTD SVG 1.1//EN" "http://www.w3.org/Graphics/SVG/1.1/DTD/svg11.dtd">
<svg version="1.1" id="Layer_1" xmlns="http://www.w3.org/2000/svg" xmlns:xlink="http://www.w3.org/1999/xlink" x="0px" y="0px"
	 width="142px" height="46px" viewBox="-69 417 142 46" enable-background="new -69 417 142 46" xml:space="preserve">
<g>
	<path d="M-61.1,459.5c-2.4,0-4.4-1.9-4.4-4.3v-30.4c0-2.4,2-4.3,4.4-4.3H65.1c2.4,0,4.4,1.9,4.4,4.3l0,30.4c0,2.4-2,4.3-4.4,4.3
		H-61.1z"/>
	<path fill="#FFFFFF" d="M65.1,421c2.1,0,3.9,1.7,3.9,3.8l0,30.4c0,2.1-1.7,3.8-3.9,3.8H-61.1c-2.1,0-3.9-1.7-3.9-3.8v-30.4
		c0-2.1,1.7-3.8,3.9-3.8H65.1 M65.1,420H-61.1c-2.7,0-4.9,2.2-4.9,4.8v30.4c0,2.7,2.2,4.8,4.9,4.8H65.1c2.7,0,4.9-2.2,4.9-4.8
		l0-30.4C70,422.2,67.8,420,65.1,420L65.1,420z"/>
</g>
<path fill="#FFFFFF" d="M-35.6,439.8c0-3.2,2.7-4.8,2.8-4.8c-1.5-2.2-3.9-2.5-4.7-2.5c-2-0.2-3.9,1.2-4.9,1.2c-1,0-2.6-1.2-4.3-1.1
	c-2.2,0-4.2,1.3-5.3,3.2c-2.3,3.9-0.6,9.6,1.6,12.8c1.1,1.5,2.4,3.3,4,3.2c1.6-0.1,2.2-1,4.2-1c2,0,2.5,1,4.2,1
	c1.8,0,2.9-1.6,3.9-3.1c1.3-1.8,1.8-3.5,1.8-3.6C-32.2,444.9-35.5,443.6-35.6,439.8z"/>
<path fill="#FFFFFF" d="M-38.8,430.4c0.9-1.1,1.5-2.6,1.3-4.1c-1.3,0.1-2.9,0.9-3.8,1.9c-0.8,0.9-1.5,2.5-1.3,3.9
	C-41.2,432.3-39.7,431.4-38.8,430.4z"/>
<g>
	<path fill="#FFFFFF" d="M-11.9,451.4h-2.3l-1.3-3.9h-4.4l-1.2,3.9h-2.2l4.3-13.2h2.7L-11.9,451.4z M-15.8,445.9l-1.1-3.5
		c-0.1-0.4-0.3-1.2-0.7-2.5h0c-0.1,0.6-0.3,1.4-0.6,2.5l-1.1,3.5H-15.8z"/>
	<path fill="#FFFFFF" d="M-0.8,446.6c0,1.6-0.4,2.9-1.3,3.8c-0.8,0.8-1.8,1.3-3,1.3c-1.3,0-2.2-0.5-2.8-1.4v5H-10V445
		c0-1,0-2.1-0.1-3.1h1.9l0.1,1.5h0c0.7-1.1,1.8-1.7,3.3-1.7c1.1,0,2.1,0.4,2.9,1.3C-1.2,443.9-0.8,445.1-0.8,446.6z M-3,446.6
		c0-0.9-0.2-1.7-0.6-2.3c-0.5-0.6-1.1-0.9-1.9-0.9c-0.5,0-1,0.2-1.4,0.5c-0.4,0.3-0.7,0.8-0.8,1.4c-0.1,0.3-0.1,0.5-0.1,0.6v1.6
		c0,0.7,0.2,1.3,0.6,1.8c0.4,0.5,1,0.7,1.7,0.7c0.8,0,1.4-0.3,1.9-0.9C-3.2,448.5-3,447.6-3,446.6z"/>
	<path fill="#FFFFFF" d="M10.3,446.6c0,1.6-0.4,2.9-1.3,3.8c-0.8,0.8-1.8,1.3-3,1.3c-1.3,0-2.2-0.5-2.8-1.4v5H1.1V445
		c0-1,0-2.1-0.1-3.1h1.9l0.1,1.5h0c0.7-1.1,1.8-1.7,3.3-1.7c1.1,0,2.1,0.4,2.9,1.3C9.9,443.9,10.3,445.1,10.3,446.6z M8.1,446.6
		c0-0.9-0.2-1.7-0.6-2.3c-0.5-0.6-1.1-0.9-1.9-0.9c-0.5,0-1,0.2-1.4,0.5c-0.4,0.3-0.7,0.8-0.8,1.4c-0.1,0.3-0.1,0.5-0.1,0.6v1.6
		c0,0.7,0.2,1.3,0.6,1.8c0.4,0.5,1,0.7,1.7,0.7c0.8,0,1.4-0.3,1.9-0.9C7.9,448.5,8.1,447.6,8.1,446.6z"/>
	<path fill="#FFFFFF" d="M22.7,447.7c0,1.1-0.4,2-1.2,2.7c-0.9,0.8-2.1,1.2-3.6,1.2c-1.4,0-2.6-0.3-3.5-0.8l0.5-1.8
		c0.9,0.6,2,0.8,3.1,0.8c0.8,0,1.4-0.2,1.9-0.5c0.4-0.4,0.7-0.8,0.7-1.4c0-0.5-0.2-1-0.6-1.4c-0.4-0.4-1-0.7-1.8-1
		c-2.3-0.9-3.5-2.1-3.5-3.8c0-1.1,0.4-2,1.2-2.7c0.8-0.7,1.9-1,3.3-1c1.2,0,2.2,0.2,3,0.6l-0.5,1.7c-0.8-0.4-1.6-0.6-2.6-0.6
		c-0.8,0-1.4,0.2-1.8,0.5c-0.4,0.3-0.5,0.7-0.5,1.2c0,0.5,0.2,1,0.6,1.3c0.4,0.3,1,0.7,1.9,1c1.2,0.5,2,1,2.5,1.6
		C22.4,446.1,22.7,446.8,22.7,447.7z"/>
	<path fill="#FFFFFF" d="M29.8,443.5h-2.4v4.6c0,1.2,0.4,1.8,1.3,1.8c0.4,0,0.7,0,1-0.1l0.1,1.6c-0.4,0.2-1,0.2-1.7,0.2
		c-0.8,0-1.5-0.3-2-0.8c-0.5-0.5-0.7-1.4-0.7-2.6v-4.8h-1.4v-1.6h1.4v-1.7l2.1-0.6v2.4h2.4C29.8,441.9,29.8,443.5,29.8,443.5z"/>
	<path fill="#FFFFFF" d="M40.5,446.6c0,1.5-0.4,2.7-1.3,3.6c-0.9,1-2.1,1.5-3.5,1.5c-1.4,0-2.5-0.5-3.4-1.4
		c-0.8-0.9-1.3-2.1-1.3-3.5c0-1.5,0.4-2.7,1.3-3.6c0.9-0.9,2-1.4,3.5-1.4c1.4,0,2.6,0.5,3.4,1.4C40.1,444,40.5,445.2,40.5,446.6z
		 M38.3,446.6c0-0.9-0.2-1.6-0.6-2.3c-0.4-0.8-1.1-1.1-1.9-1.1c-0.9,0-1.5,0.4-2,1.1c-0.4,0.6-0.6,1.4-0.6,2.3
		c0,0.9,0.2,1.6,0.6,2.3c0.5,0.8,1.1,1.1,1.9,1.1c0.8,0,1.5-0.4,1.9-1.2C38.1,448.3,38.3,447.5,38.3,446.6z"/>
	<path fill="#FFFFFF" d="M47.5,443.8c-0.2,0-0.4-0.1-0.7-0.1c-0.8,0-1.3,0.3-1.7,0.8c-0.4,0.5-0.5,1.1-0.5,1.9v5h-2.1v-6.5
		c0-1.1,0-2.1-0.1-3h1.9l0.1,1.8h0.1c0.2-0.6,0.6-1.1,1.1-1.5c0.5-0.3,1-0.5,1.6-0.5c0.2,0,0.4,0,0.5,0L47.5,443.8L47.5,443.8z"/>
	<path fill="#FFFFFF" d="M57,446.2c0,0.4,0,0.7-0.1,1h-6.4c0,0.9,0.3,1.7,0.9,2.2c0.5,0.4,1.2,0.7,2.1,0.7c1,0,1.8-0.1,2.6-0.5
		l0.3,1.5c-0.9,0.4-2,0.6-3.2,0.6c-1.5,0-2.7-0.4-3.5-1.3c-0.9-0.9-1.3-2-1.3-3.5c0-1.4,0.4-2.6,1.2-3.6c0.8-1,2-1.5,3.4-1.5
		c1.4,0,2.4,0.5,3.2,1.5C56.8,444,57,445,57,446.2z M55,445.7c0-0.6-0.1-1.2-0.4-1.6c-0.4-0.6-0.9-0.9-1.7-0.9
		c-0.7,0-1.3,0.3-1.7,0.9c-0.4,0.5-0.6,1-0.6,1.6L55,445.7L55,445.7z"/>
</g>
<g>
	<path fill="#FCFCFC" d="M-19.3,433.6c-1.5,0-2.6-0.7-2.6-2.2h1.1c0,1,0.7,1.3,1.6,1.3c0.8,0,1.2-0.4,1.2-1.1c0-0.7-0.5-1-1.2-1H-20
		v-0.9h0.8c0.6,0,1-0.4,1-1c0-0.6-0.4-0.9-1.1-0.9c-0.8,0-1.3,0.3-1.4,1.1h-1c0.1-1.4,1.1-2,2.3-2c1.2,0,2.3,0.5,2.3,1.7
		c0,0.7-0.5,1.2-1,1.3v0c0.7,0.1,1.2,0.7,1.2,1.5C-17,432.4-17.6,433.6-19.3,433.6z"/>
	<path fill="#FCFCFC" d="M-13.7,428.8c1.1,0,1.9,0.4,1.9,1.4v2.3c0,0.3,0.1,0.3,0.2,0.3c0.1,0,0.1,0,0.2,0v0.7
		c-0.3,0.1-0.5,0.1-0.7,0.1c-0.4,0-0.7-0.1-0.7-0.5c-0.4,0.4-1,0.5-1.6,0.5c-0.9,0-1.5-0.5-1.5-1.4c0-1.2,1.1-1.3,2-1.4
		c0.7-0.1,0.9-0.1,1-0.3c0-0.1,0.1-0.2,0.1-0.3c0-0.5-0.3-0.7-0.9-0.7c-0.7,0-0.9,0.2-1,0.8h-1C-15.6,429.2-14.8,428.8-13.7,428.8z
		 M-13.9,431.4c-0.5,0.1-1,0.2-1,0.8c0,0.4,0.3,0.7,0.8,0.7c0.4,0,0.8-0.1,1-0.4c0.2-0.2,0.2-0.5,0.2-0.8v-0.5
		C-13.2,431.4-13.5,431.4-13.9,431.4z"/>
	<path fill="#FCFCFC" d="M-9.4,429.7v3.8h-1v-4.5h3.2v0.8H-9.4z"/>
	<path fill="#FCFCFC" d="M-5.4,429.5c0.3-0.5,0.9-0.7,1.5-0.7c1.3,0,2.1,1,2.1,2.4c0,1.4-0.8,2.4-2,2.4c-0.6,0-1.1-0.2-1.5-0.7v2.3
		h-1v-6.2h0.9V429.5z M-5.4,431.2c0,1,0.5,1.6,1.3,1.6c0.8,0,1.2-0.6,1.2-1.6c0-1-0.5-1.6-1.3-1.6C-4.9,429.6-5.4,430.2-5.4,431.2z"
		/>
	<path fill="#FCFCFC" d="M1.7,433.4c-0.3,0.9-0.6,1.8-1.7,1.8c-0.2,0-0.4,0-0.7-0.1v-0.8c0.3,0.1,0.4,0.1,0.5,0.1
		c0.5,0,0.6-0.6,0.8-1l-1.7-4.4H0l1.2,3.3l1.1-3.3h1L1.7,433.4z"/>
	<path fill="#FCFCFC" d="M6.1,433.6c-1.3,0-2-0.6-2.1-1.5h1c0.1,0.6,0.6,0.8,1,0.8c0.6,0,0.9-0.2,0.9-0.7c0-0.4-0.2-0.7-0.9-0.7H5.6
		v-0.7H6c0.5,0,0.9-0.1,0.9-0.6c0-0.3-0.2-0.6-0.8-0.6c-0.5,0-0.8,0.3-0.9,0.7h-1c0.1-1.2,1.1-1.4,2-1.4c0.9,0,1.7,0.3,1.7,1.2
		c0,0.5-0.4,0.9-0.7,1v0c0.4,0.1,0.9,0.4,0.9,1.1C8,433.1,7.1,433.6,6.1,433.6z"/>
	<path fill="#FCFCFC" d="M9.3,433.5v-4.5h1v3.3h0l1.7-3.3h1.3v4.5h-1v-3.3h0l-1.7,3.3H9.3z"/>
	<path fill="#FCFCFC" d="M16.7,429.7v3.8h-1v-3.8h-1.5v-0.8h4v0.8H16.7z"/>
	<path fill="#FCFCFC" d="M21.1,433.6c-1.4,0-2.2-1-2.2-2.4c0-1.4,0.9-2.5,2.2-2.5c1.3,0,2.2,1,2.2,2.5v0.1h-3.4
		c0,0.9,0.5,1.4,1.2,1.4c0.6,0,0.9-0.2,1.1-0.8h1C22.9,433.1,22.1,433.6,21.1,433.6z M21.1,429.5c-0.7,0-1.1,0.4-1.2,1.2h2.3
		C22.2,430,21.7,429.5,21.1,429.5z"/>
	<path fill="#FCFCFC" d="M27.1,433.5v-4.5h1v1.8h2v-1.8h1v4.5h-1v-2h-2v2H27.1z"/>
	<path fill="#FCFCFC" d="M34.5,428.8c1.1,0,1.9,0.4,1.9,1.4v2.3c0,0.3,0.1,0.3,0.2,0.3c0.1,0,0.1,0,0.2,0v0.7
		c-0.3,0.1-0.5,0.1-0.7,0.1c-0.4,0-0.7-0.1-0.7-0.5c-0.4,0.4-1,0.5-1.6,0.5c-0.9,0-1.5-0.5-1.5-1.4c0-1.2,1.1-1.3,2-1.4
		c0.7-0.1,0.9-0.1,1-0.3c0-0.1,0.1-0.2,0.1-0.3c0-0.5-0.3-0.7-0.9-0.7c-0.7,0-0.9,0.2-1,0.8h-1C32.6,429.2,33.4,428.8,34.5,428.8z
		 M34.3,431.4c-0.5,0.1-1,0.2-1,0.8c0,0.4,0.3,0.7,0.8,0.7c0.4,0,0.8-0.1,1-0.4c0.2-0.2,0.2-0.5,0.2-0.8v-0.5
		C35.1,431.4,34.7,431.4,34.3,431.4z"/>
</g>
</svg>
