<?xml version="1.0" encoding="utf-8"?>
<!-- Generator: Adobe Illustrator 17.1.0, SVG Export Plug-In . SVG Version: 6.00 Build 0)  -->
<!DOCTYPE svg PUBLIC "-//W3C//DTD SVG 1.1//EN" "http://www.w3.org/Graphics/SVG/1.1/DTD/svg11.dtd">
<svg version="1.1" id="Layer_1" xmlns="http://www.w3.org/2000/svg" xmlns:xlink="http://www.w3.org/1999/xlink" x="0px" y="0px"
	 width="142px" height="46px" viewBox="97 417 142 46" enable-background="new 97 417 142 46" xml:space="preserve">
<g>
	<g>
		<path d="M104.9,459.5c-2.4,0-4.4-1.9-4.4-4.3v-30.4c0-2.4,2-4.3,4.4-4.3h126.3c2.4,0,4.4,1.9,4.4,4.3l0,30.4c0,2.4-2,4.3-4.4,4.3
			H104.9z"/>
		<path fill="#FFFFFF" d="M231.1,421c2.1,0,3.9,1.7,3.9,3.8l0,30.4c0,2.1-1.7,3.8-3.9,3.8H104.9c-2.1,0-3.9-1.7-3.9-3.8v-30.4
			c0-2.1,1.7-3.8,3.9-3.8H231.1 M231.1,420H104.9c-2.7,0-4.9,2.2-4.9,4.8v30.4c0,2.7,2.2,4.8,4.9,4.8h126.3c2.7,0,4.9-2.2,4.9-4.8
			l0-30.4C236,422.2,233.8,420,231.1,420L231.1,420z"/>
	</g>
	<path fill="#FFFFFF" d="M130.4,439.8c0-3.2,2.7-4.8,2.8-4.8c-1.5-2.2-3.9-2.5-4.7-2.5c-2-0.2-3.9,1.2-4.9,1.2c-1,0-2.6-1.2-4.3-1.1
		c-2.2,0-4.2,1.3-5.3,3.2c-2.3,3.9-0.6,9.6,1.6,12.8c1.1,1.5,2.4,3.3,4,3.2c1.6-0.1,2.2-1,4.2-1c2,0,2.5,1,4.2,1
		c1.8,0,2.9-1.6,3.9-3.1c1.3-1.8,1.8-3.5,1.8-3.6C133.8,444.9,130.5,443.6,130.4,439.8z"/>
	<path fill="#FFFFFF" d="M127.2,430.4c0.9-1.1,1.5-2.6,1.3-4.1c-1.3,0.1-2.9,0.9-3.8,1.9c-0.8,0.9-1.5,2.5-1.3,3.9
		C124.8,432.3,126.3,431.4,127.2,430.4z"/>
	<g>
		<path fill="#FFFFFF" d="M154.1,451.4h-2.3l-1.3-3.9h-4.4l-1.2,3.9h-2.2l4.3-13.2h2.7L154.1,451.4z M150.2,445.9l-1.1-3.5
			c-0.1-0.4-0.3-1.2-0.7-2.5h0c-0.1,0.6-0.3,1.4-0.6,2.5l-1.1,3.5H150.2z"/>
		<path fill="#FFFFFF" d="M165.2,446.6c0,1.6-0.4,2.9-1.3,3.8c-0.8,0.8-1.8,1.3-3,1.3c-1.3,0-2.2-0.5-2.8-1.4v5H156V445
			c0-1,0-2.1-0.1-3.1h1.9l0.1,1.5h0c0.7-1.1,1.8-1.7,3.3-1.7c1.1,0,2.1,0.4,2.9,1.3C164.8,443.9,165.2,445.1,165.2,446.6z
			 M163,446.6c0-0.9-0.2-1.7-0.6-2.3c-0.5-0.6-1.1-0.9-1.9-0.9c-0.5,0-1,0.2-1.4,0.5c-0.4,0.3-0.7,0.8-0.8,1.4
			c-0.1,0.3-0.1,0.5-0.1,0.6v1.6c0,0.7,0.2,1.3,0.6,1.8c0.4,0.5,1,0.7,1.7,0.7c0.8,0,1.4-0.3,1.9-0.9
			C162.8,448.5,163,447.6,163,446.6z"/>
		<path fill="#FFFFFF" d="M176.3,446.6c0,1.6-0.4,2.9-1.3,3.8c-0.8,0.8-1.8,1.3-3,1.3c-1.3,0-2.2-0.5-2.8-1.4v5h-2.1V445
			c0-1,0-2.1-0.1-3.1h1.9l0.1,1.5h0c0.7-1.1,1.8-1.7,3.3-1.7c1.1,0,2.1,0.4,2.9,1.3C175.9,443.9,176.3,445.1,176.3,446.6z
			 M174.1,446.6c0-0.9-0.2-1.7-0.6-2.3c-0.5-0.6-1.1-0.9-1.9-0.9c-0.5,0-1,0.2-1.4,0.5c-0.4,0.3-0.7,0.8-0.8,1.4
			c-0.1,0.3-0.1,0.5-0.1,0.6v1.6c0,0.7,0.2,1.3,0.6,1.8c0.4,0.5,1,0.7,1.7,0.7c0.8,0,1.4-0.3,1.9-0.9
			C173.9,448.5,174.1,447.6,174.1,446.6z"/>
		<path fill="#FFFFFF" d="M188.7,447.7c0,1.1-0.4,2-1.2,2.7c-0.9,0.8-2.1,1.2-3.6,1.2c-1.4,0-2.6-0.3-3.5-0.8l0.5-1.8
			c0.9,0.6,2,0.8,3.1,0.8c0.8,0,1.4-0.2,1.9-0.5c0.4-0.4,0.7-0.8,0.7-1.4c0-0.5-0.2-1-0.6-1.4c-0.4-0.4-1-0.7-1.8-1
			c-2.3-0.9-3.5-2.1-3.5-3.8c0-1.1,0.4-2,1.2-2.7c0.8-0.7,1.9-1,3.3-1c1.2,0,2.2,0.2,3,0.6l-0.5,1.7c-0.8-0.4-1.6-0.6-2.6-0.6
			c-0.8,0-1.4,0.2-1.8,0.5c-0.4,0.3-0.5,0.7-0.5,1.2c0,0.5,0.2,1,0.6,1.3c0.4,0.3,1,0.7,1.9,1c1.2,0.5,2,1,2.5,1.6
			C188.4,446.1,188.7,446.8,188.7,447.7z"/>
		<path fill="#FFFFFF" d="M195.8,443.5h-2.4v4.6c0,1.2,0.4,1.8,1.3,1.8c0.4,0,0.7,0,1-0.1l0.1,1.6c-0.4,0.2-1,0.2-1.7,0.2
			c-0.8,0-1.5-0.3-2-0.8c-0.5-0.5-0.7-1.4-0.7-2.6v-4.8h-1.4v-1.6h1.4v-1.7l2.1-0.6v2.4h2.4C195.8,441.9,195.8,443.5,195.8,443.5z"
			/>
		<path fill="#FFFFFF" d="M206.5,446.6c0,1.5-0.4,2.7-1.3,3.6c-0.9,1-2.1,1.5-3.5,1.5c-1.4,0-2.5-0.5-3.4-1.4
			c-0.8-0.9-1.3-2.1-1.3-3.5c0-1.5,0.4-2.7,1.3-3.6c0.9-0.9,2-1.4,3.5-1.4c1.4,0,2.6,0.5,3.4,1.4C206.1,444,206.5,445.2,206.5,446.6
			z M204.3,446.6c0-0.9-0.2-1.6-0.6-2.3c-0.4-0.8-1.1-1.1-1.9-1.1c-0.9,0-1.5,0.4-2,1.1c-0.4,0.6-0.6,1.4-0.6,2.3
			c0,0.9,0.2,1.6,0.6,2.3c0.5,0.8,1.1,1.1,1.9,1.1c0.8,0,1.5-0.4,1.9-1.2C204.1,448.3,204.3,447.5,204.3,446.6z"/>
		<path fill="#FFFFFF" d="M213.5,443.8c-0.2,0-0.4-0.1-0.7-0.1c-0.8,0-1.3,0.3-1.7,0.8c-0.4,0.5-0.5,1.1-0.5,1.9v5h-2.1v-6.5
			c0-1.1,0-2.1-0.1-3h1.9l0.1,1.8h0.1c0.2-0.6,0.6-1.1,1.1-1.5c0.5-0.3,1-0.5,1.6-0.5c0.2,0,0.4,0,0.5,0L213.5,443.8L213.5,443.8z"
			/>
		<path fill="#FFFFFF" d="M223,446.2c0,0.4,0,0.7-0.1,1h-6.4c0,0.9,0.3,1.7,0.9,2.2c0.5,0.4,1.2,0.7,2.1,0.7c1,0,1.8-0.1,2.6-0.5
			l0.3,1.5c-0.9,0.4-2,0.6-3.2,0.6c-1.5,0-2.7-0.4-3.5-1.3c-0.9-0.9-1.3-2-1.3-3.5c0-1.4,0.4-2.6,1.2-3.6c0.8-1,2-1.5,3.4-1.5
			c1.4,0,2.4,0.5,3.2,1.5C222.8,444,223,445,223,446.2z M221,445.7c0-0.6-0.1-1.2-0.4-1.6c-0.4-0.6-0.9-0.9-1.7-0.9
			c-0.7,0-1.3,0.3-1.7,0.9c-0.4,0.5-0.6,1-0.6,1.6L221,445.7L221,445.7z"/>
	</g>
</g>
<g>
	<path fill="#FCFCFC" d="M148.4,431.6c0,1.3-0.7,2-1.9,2c-1.5,0-2-0.8-2-2.1v-0.2h1v0.3c0,0.6,0.2,1.1,0.9,1.1
		c0.8,0,0.9-0.6,0.9-1.3v-4.3h1.1V431.6z"/>
	<path fill="#FCFCFC" d="M151.9,433.6c-1.4,0-2.2-1-2.2-2.4c0-1.4,0.9-2.5,2.2-2.5c1.3,0,2.2,1,2.2,2.5v0.1h-3.4
		c0,0.9,0.5,1.4,1.2,1.4c0.6,0,0.9-0.2,1.1-0.8h1C153.7,433.1,152.9,433.6,151.9,433.6z M151.8,429.5c-0.7,0-1.1,0.4-1.2,1.2h2.3
		C152.9,430,152.5,429.5,151.8,429.5z"/>
	<path fill="#FCFCFC" d="M157.3,429.7h-0.9v2.4c0,0.4,0,0.7,0.5,0.7c0.1,0,0.2,0,0.4,0v0.8c-0.3,0-0.4,0-0.7,0
		c-1.3,0-1.2-0.7-1.2-1.7v-2.2h-0.8v-0.7h0.8v-1.4h1v1.4h0.9V429.7z"/>
	<path fill="#FCFCFC" d="M162,429.6l-2.6,3h2.7v0.8h-4v-0.8l2.5-3h-2.4v-0.8h3.7V429.6z"/>
	<path fill="#FCFCFC" d="M165.4,429.7h-0.9v2.4c0,0.4,0,0.7,0.5,0.7c0.1,0,0.2,0,0.4,0v0.8c-0.3,0-0.4,0-0.7,0
		c-1.3,0-1.2-0.7-1.2-1.7v-2.2h-0.8v-0.7h0.8v-1.4h1v1.4h0.9V429.7z"/>
	<path fill="#FCFCFC" d="M170.3,429.5c0.3-0.5,0.9-0.7,1.5-0.7c1.2,0,2,0.9,2,2.4c0,1.5-0.8,2.4-2.1,2.4c-0.6,0-1.2-0.2-1.5-0.7v0.6
		h-0.9v-6.3h1V429.5z M170.2,431.2c0,1,0.5,1.6,1.3,1.6c0.8,0,1.2-0.6,1.2-1.6c0-1-0.5-1.6-1.2-1.6
		C170.7,429.6,170.2,430.2,170.2,431.2z"/>
	<path fill="#FCFCFC" d="M177,433.6c-1.4,0-2.2-1-2.2-2.4c0-1.4,0.9-2.5,2.2-2.5c1.3,0,2.2,1,2.2,2.5v0.1h-3.4
		c0,0.9,0.5,1.4,1.2,1.4c0.6,0,0.9-0.2,1.1-0.8h1C178.8,433.1,178,433.6,177,433.6z M176.9,429.5c-0.7,0-1.1,0.4-1.2,1.2h2.3
		C178,430,177.6,429.5,176.9,429.5z"/>
	<path fill="#FCFCFC" d="M181.3,428.2h-1v-1h1V428.2z M181.3,433.5h-1v-4.5h1V433.5z"/>
</g>
</svg>
