<?xml version="1.0" encoding="utf-8"?>
<!-- Generator: Adobe Illustrator 17.1.0, SVG Export Plug-In . SVG Version: 6.00 Build 0)  -->
<!DOCTYPE svg PUBLIC "-//W3C//DTD SVG 1.1//EN" "http://www.w3.org/Graphics/SVG/1.1/DTD/svg11.dtd">
<svg version="1.1" id="Layer_1" xmlns="http://www.w3.org/2000/svg" xmlns:xlink="http://www.w3.org/1999/xlink" x="0px" y="0px"
	 width="142px" height="46px" viewBox="-238 417 142 46" enable-background="new -238 417 142 46" xml:space="preserve">
<g>
	<g>
		<path d="M-230.1,459.5c-2.4,0-4.4-1.9-4.4-4.3v-30.4c0-2.4,2-4.3,4.4-4.3h126.3c2.4,0,4.4,1.9,4.4,4.3l0,30.4c0,2.4-2,4.3-4.4,4.3
			H-230.1z"/>
		<path fill="#FFFFFF" d="M-103.9,421c2.1,0,3.9,1.7,3.9,3.8l0,30.4c0,2.1-1.7,3.8-3.9,3.8h-126.3c-2.1,0-3.9-1.7-3.9-3.8v-30.4
			c0-2.1,1.7-3.8,3.9-3.8H-103.9 M-103.9,420h-126.3c-2.7,0-4.9,2.2-4.9,4.8v30.4c0,2.7,2.2,4.8,4.9,4.8h126.3
			c2.7,0,4.9-2.2,4.9-4.8l0-30.4C-99,422.2-101.2,420-103.9,420L-103.9,420z"/>
	</g>
	<path fill="#FFFFFF" d="M-204.6,439.8c0-3.2,2.7-4.8,2.8-4.8c-1.5-2.2-3.9-2.5-4.7-2.5c-2-0.2-3.9,1.2-4.9,1.2
		c-1,0-2.6-1.2-4.3-1.1c-2.2,0-4.2,1.3-5.3,3.2c-2.3,3.9-0.6,9.6,1.6,12.8c1.1,1.5,2.4,3.3,4,3.2c1.6-0.1,2.2-1,4.2-1
		c2,0,2.5,1,4.2,1c1.8,0,2.9-1.6,3.9-3.1c1.3-1.8,1.8-3.5,1.8-3.6C-201.2,444.9-204.5,443.6-204.6,439.8z"/>
	<path fill="#FFFFFF" d="M-207.8,430.4c0.9-1.1,1.5-2.6,1.3-4.1c-1.3,0.1-2.9,0.9-3.8,1.9c-0.8,0.9-1.5,2.5-1.3,3.9
		C-210.2,432.3-208.7,431.4-207.8,430.4z"/>
	<g>
		<path fill="#FFFFFF" d="M-180.9,451.4h-2.3l-1.3-3.9h-4.4l-1.2,3.9h-2.2l4.3-13.2h2.7L-180.9,451.4z M-184.8,445.9l-1.1-3.5
			c-0.1-0.4-0.3-1.2-0.7-2.5h0c-0.1,0.6-0.3,1.4-0.6,2.5l-1.1,3.5H-184.8z"/>
		<path fill="#FFFFFF" d="M-169.8,446.6c0,1.6-0.4,2.9-1.3,3.8c-0.8,0.8-1.8,1.3-3,1.3c-1.3,0-2.2-0.5-2.8-1.4v5h-2.1V445
			c0-1,0-2.1-0.1-3.1h1.9l0.1,1.5h0c0.7-1.1,1.8-1.7,3.3-1.7c1.1,0,2.1,0.4,2.9,1.3C-170.2,443.9-169.8,445.1-169.8,446.6z
			 M-172,446.6c0-0.9-0.2-1.7-0.6-2.3c-0.5-0.6-1.1-0.9-1.9-0.9c-0.5,0-1,0.2-1.4,0.5c-0.4,0.3-0.7,0.8-0.8,1.4
			c-0.1,0.3-0.1,0.5-0.1,0.6v1.6c0,0.7,0.2,1.3,0.6,1.8c0.4,0.5,1,0.7,1.7,0.7c0.8,0,1.4-0.3,1.9-0.9
			C-172.2,448.5-172,447.6-172,446.6z"/>
		<path fill="#FFFFFF" d="M-158.7,446.6c0,1.6-0.4,2.9-1.3,3.8c-0.8,0.8-1.8,1.3-3,1.3c-1.3,0-2.2-0.5-2.8-1.4v5h-2.1V445
			c0-1,0-2.1-0.1-3.1h1.9l0.1,1.5h0c0.7-1.1,1.8-1.7,3.3-1.7c1.1,0,2.1,0.4,2.9,1.3C-159.1,443.9-158.7,445.1-158.7,446.6z
			 M-160.9,446.6c0-0.9-0.2-1.7-0.6-2.3c-0.5-0.6-1.1-0.9-1.9-0.9c-0.5,0-1,0.2-1.4,0.5c-0.4,0.3-0.7,0.8-0.8,1.4
			c-0.1,0.3-0.1,0.5-0.1,0.6v1.6c0,0.7,0.2,1.3,0.6,1.8c0.4,0.5,1,0.7,1.7,0.7c0.8,0,1.4-0.3,1.9-0.9
			C-161.1,448.5-160.9,447.6-160.9,446.6z"/>
		<path fill="#FFFFFF" d="M-146.3,447.7c0,1.1-0.4,2-1.2,2.7c-0.9,0.8-2.1,1.2-3.6,1.2c-1.4,0-2.6-0.3-3.5-0.8l0.5-1.8
			c0.9,0.6,2,0.8,3.1,0.8c0.8,0,1.4-0.2,1.9-0.5c0.4-0.4,0.7-0.8,0.7-1.4c0-0.5-0.2-1-0.6-1.4c-0.4-0.4-1-0.7-1.8-1
			c-2.3-0.9-3.5-2.1-3.5-3.8c0-1.1,0.4-2,1.2-2.7c0.8-0.7,1.9-1,3.3-1c1.2,0,2.2,0.2,3,0.6l-0.5,1.7c-0.8-0.4-1.6-0.6-2.6-0.6
			c-0.8,0-1.4,0.2-1.8,0.5c-0.4,0.3-0.5,0.7-0.5,1.2c0,0.5,0.2,1,0.6,1.3c0.4,0.3,1,0.7,1.9,1c1.2,0.5,2,1,2.5,1.6
			C-146.6,446.1-146.3,446.8-146.3,447.7z"/>
		<path fill="#FFFFFF" d="M-139.2,443.5h-2.4v4.6c0,1.2,0.4,1.8,1.3,1.8c0.4,0,0.7,0,1-0.1l0.1,1.6c-0.4,0.2-1,0.2-1.7,0.2
			c-0.8,0-1.5-0.3-2-0.8c-0.5-0.5-0.7-1.4-0.7-2.6v-4.8h-1.4v-1.6h1.4v-1.7l2.1-0.6v2.4h2.4C-139.2,441.9-139.2,443.5-139.2,443.5z"
			/>
		<path fill="#FFFFFF" d="M-128.5,446.6c0,1.5-0.4,2.7-1.3,3.6c-0.9,1-2.1,1.5-3.5,1.5c-1.4,0-2.5-0.5-3.4-1.4
			c-0.8-0.9-1.3-2.1-1.3-3.5c0-1.5,0.4-2.7,1.3-3.6c0.9-0.9,2-1.4,3.5-1.4c1.4,0,2.6,0.5,3.4,1.4
			C-128.9,444-128.5,445.2-128.5,446.6z M-130.7,446.6c0-0.9-0.2-1.6-0.6-2.3c-0.4-0.8-1.1-1.1-1.9-1.1c-0.9,0-1.5,0.4-2,1.1
			c-0.4,0.6-0.6,1.4-0.6,2.3c0,0.9,0.2,1.6,0.6,2.3c0.5,0.8,1.1,1.1,1.9,1.1c0.8,0,1.5-0.4,1.9-1.2
			C-130.9,448.3-130.7,447.5-130.7,446.6z"/>
		<path fill="#FFFFFF" d="M-121.5,443.8c-0.2,0-0.4-0.1-0.7-0.1c-0.8,0-1.3,0.3-1.7,0.8c-0.4,0.5-0.5,1.1-0.5,1.9v5h-2.1v-6.5
			c0-1.1,0-2.1-0.1-3h1.9l0.1,1.8h0.1c0.2-0.6,0.6-1.1,1.1-1.5c0.5-0.3,1-0.5,1.6-0.5c0.2,0,0.4,0,0.5,0L-121.5,443.8L-121.5,443.8z
			"/>
		<path fill="#FFFFFF" d="M-112,446.2c0,0.4,0,0.7-0.1,1h-6.4c0,0.9,0.3,1.7,0.9,2.2c0.5,0.4,1.2,0.7,2.1,0.7c1,0,1.8-0.1,2.6-0.5
			l0.3,1.5c-0.9,0.4-2,0.6-3.2,0.6c-1.5,0-2.7-0.4-3.5-1.3c-0.9-0.9-1.3-2-1.3-3.5c0-1.4,0.4-2.6,1.2-3.6c0.8-1,2-1.5,3.4-1.5
			c1.4,0,2.4,0.5,3.2,1.5C-112.2,444-112,445-112,446.2z M-114,445.7c0-0.6-0.1-1.2-0.4-1.6c-0.4-0.6-0.9-0.9-1.7-0.9
			c-0.7,0-1.3,0.3-1.7,0.9c-0.4,0.5-0.6,1-0.6,1.6L-114,445.7L-114,445.7z"/>
	</g>
	<g>
		<g>
			<path fill="#FFFFFF" d="M-189.4,433.5c-0.6,0-1.1,0-1.5-0.1v-6.4c0.6-0.1,1.2-0.1,1.8-0.1c2.5,0,3.6,1.2,3.6,3.1
				C-185.5,432.3-186.9,433.5-189.4,433.5z M-189,427.7c-0.3,0-0.6,0-0.8,0.1v4.9c0.1,0,0.4,0,0.7,0c1.6,0,2.5-0.9,2.5-2.6
				C-186.6,428.6-187.5,427.7-189,427.7z"/>
			<path fill="#FFFFFF" d="M-182,433.6c-1.4,0-2.3-1-2.3-2.4c0-1.4,0.9-2.5,2.4-2.5c1.4,0,2.3,1,2.3,2.4
				C-179.6,432.6-180.6,433.6-182,433.6z M-182,429.4c-0.8,0-1.2,0.7-1.2,1.7c0,1,0.5,1.7,1.2,1.7c0.7,0,1.2-0.8,1.2-1.7
				C-180.7,430.2-181.2,429.4-182,429.4z"/>
			<path fill="#FFFFFF" d="M-171.7,428.8l-1.5,4.7h-1l-0.6-2c-0.2-0.5-0.3-1-0.4-1.5h0c-0.1,0.5-0.2,1-0.4,1.5l-0.7,2h-1l-1.4-4.7
				h1.1l0.5,2.2c0.1,0.5,0.2,1,0.3,1.5h0c0.1-0.4,0.2-0.9,0.4-1.5l0.7-2.2h0.9l0.6,2.2c0.2,0.5,0.3,1.1,0.4,1.5h0
				c0.1-0.5,0.2-1,0.3-1.5l0.6-2.2L-171.7,428.8L-171.7,428.8z"/>
			<path fill="#FFFFFF" d="M-166.3,433.5h-1.1v-2.7c0-0.8-0.3-1.2-1-1.2c-0.6,0-1.1,0.5-1.1,1.1v2.8h-1.1v-3.3c0-0.4,0-0.9,0-1.3
				h0.9l0,0.7h0c0.3-0.5,0.9-0.8,1.5-0.8c1,0,1.7,0.8,1.7,2L-166.3,433.5L-166.3,433.5z"/>
			<path fill="#FFFFFF" d="M-163.3,433.5h-1.1v-6.8h1.1V433.5z"/>
			<path fill="#FFFFFF" d="M-159.5,433.6c-1.4,0-2.3-1-2.3-2.4c0-1.4,0.9-2.5,2.4-2.5c1.4,0,2.3,1,2.3,2.4
				C-157.1,432.6-158.1,433.6-159.5,433.6z M-159.5,429.4c-0.8,0-1.2,0.7-1.2,1.7c0,1,0.5,1.7,1.2,1.7c0.7,0,1.2-0.8,1.2-1.7
				C-158.2,430.2-158.7,429.4-159.5,429.4z"/>
			<path fill="#FFFFFF" d="M-153,433.5l-0.1-0.5h0c-0.3,0.4-0.8,0.6-1.4,0.6c-0.9,0-1.5-0.6-1.5-1.4c0-1.2,1-1.8,2.8-1.8v-0.1
				c0-0.6-0.3-0.9-1-0.9c-0.5,0-0.9,0.1-1.2,0.3l-0.2-0.7c0.4-0.3,1-0.4,1.6-0.4c1.2,0,1.9,0.6,1.9,1.9v1.7c0,0.5,0,0.8,0.1,1.1
				L-153,433.5L-153,433.5z M-153.1,431.1c-1.2,0-1.8,0.3-1.8,0.9c0,0.5,0.3,0.7,0.7,0.7c0.5,0,1-0.4,1-1V431.1z"/>
			<path fill="#FFFFFF" d="M-147,433.5l0-0.8h0c-0.3,0.6-0.8,0.9-1.5,0.9c-1.1,0-2-1-2-2.4c0-1.5,0.9-2.5,2.1-2.5
				c0.6,0,1.1,0.2,1.3,0.6h0v-2.7h1.1v5.6c0,0.5,0,0.9,0,1.3C-146,433.5-147,433.5-147,433.5z M-147.1,430.7c0-0.7-0.4-1.2-1.1-1.2
				c-0.8,0-1.3,0.7-1.3,1.6c0,0.9,0.5,1.6,1.2,1.6c0.7,0,1.1-0.6,1.1-1.2C-147.1,431.5-147.1,430.7-147.1,430.7z"/>
			<path fill="#FFFFFF" d="M-139.4,433.6c-1.4,0-2.3-1-2.3-2.4c0-1.4,0.9-2.5,2.4-2.5c1.4,0,2.3,1,2.3,2.4
				C-137,432.6-138,433.6-139.4,433.6z M-139.3,429.4c-0.8,0-1.2,0.7-1.2,1.7c0,1,0.5,1.7,1.2,1.7c0.7,0,1.2-0.8,1.2-1.7
				C-138.1,430.2-138.6,429.4-139.3,429.4z"/>
			<path fill="#FFFFFF" d="M-131.3,433.5h-1.1v-2.7c0-0.8-0.3-1.2-1-1.2c-0.6,0-1.1,0.5-1.1,1.1v2.8h-1.1v-3.3c0-0.4,0-0.9,0-1.3
				h0.9l0,0.7h0c0.3-0.5,0.9-0.8,1.5-0.8c1,0,1.7,0.8,1.7,2V433.5z"/>
			<path fill="#FFFFFF" d="M-124.2,429.6h-1.2v2.3c0,0.6,0.2,0.9,0.6,0.9c0.2,0,0.3,0,0.5,0l0,0.8c-0.2,0.1-0.5,0.1-0.8,0.1
				c-0.8,0-1.3-0.5-1.3-1.6v-2.4h-0.7v-0.8h0.7v-0.9l1-0.3v1.2h1.2C-124.2,428.8-124.2,429.6-124.2,429.6z"/>
			<path fill="#FFFFFF" d="M-118.7,433.5h-1.1v-2.7c0-0.8-0.3-1.3-1-1.3c-0.5,0-1.1,0.4-1.1,1.1v2.8h-1.1v-6.8h1.1v2.8h0
				c0.3-0.5,0.8-0.8,1.4-0.8c1,0,1.6,0.8,1.6,2C-118.7,430.7-118.7,433.5-118.7,433.5z"/>
			<path fill="#FFFFFF" d="M-112.9,431.4h-3.2c0,0.9,0.6,1.4,1.5,1.4c0.5,0,0.9-0.1,1.3-0.2l0.2,0.7c-0.4,0.2-1,0.3-1.6,0.3
				c-1.5,0-2.4-0.9-2.4-2.4c0-1.4,0.9-2.5,2.2-2.5c1.2,0,2,0.9,2,2.2C-112.9,431.1-112.9,431.3-112.9,431.4z M-113.9,430.6
				c0-0.7-0.4-1.2-1-1.2c-0.6,0-1.1,0.5-1.2,1.2H-113.9z"/>
		</g>
	</g>
</g>
</svg>
