<?xml version="1.0" encoding="utf-8"?>
<!-- Generator: Adobe Illustrator 17.1.0, SVG Export Plug-In . SVG Version: 6.00 Build 0)  -->
<!DOCTYPE svg PUBLIC "-//W3C//DTD SVG 1.1//EN" "http://www.w3.org/Graphics/SVG/1.1/DTD/svg11.dtd">
<svg version="1.1" xmlns="http://www.w3.org/2000/svg" xmlns:xlink="http://www.w3.org/1999/xlink" x="0px" y="0px" width="229px"
	 height="91px" viewBox="0 0 229 91" enable-background="new 0 0 229 91" xml:space="preserve">
<g id="Black_Blackground">
</g>
<g id="SemiBold">
	<path stroke="#FFFFFF" stroke-width="1.5" stroke-miterlimit="10" d="M222,71c0,6.5-4.8,10.6-11.3,10.6H18.8
		C12.3,81.6,7,76.3,7,69.8v-50C7,13.3,12.3,8,18.8,8h191.8c6.5,0,11.3,5.3,11.3,11.8V71z"/>
	<g>
		<g>
			<path fill="#FFFFFF" d="M153.9,60.9l-1.6,1.5c-0.4,0.2-0.7,0.4-1.1,0.6c-1.1,0.5-2.3,0.6-3.3,0.6c-1.1,0-2.8-0.1-4.5-1.3
				c-2.4-1.7-3.4-4.6-3.4-7.1c0-5.2,4.3-7.8,7.7-7.8c1.2,0,2.5,0.3,3.5,0.9c1.7,1.1,2.1,2.6,2.4,3.3l-7.9,3.2l-2.6,0.2
				c0.8,4.3,3.7,6.8,7,6.8C151.6,61.9,152.8,61.4,153.9,60.9C153.9,60.8,154.1,60.7,153.9,60.9z M149.1,52.3c0.6-0.2,1-0.4,1-0.9
				c0-1.3-1.5-2.9-3.3-2.9c-1.3,0-3.9,1-3.9,4.7c0,0.6,0.1,1.2,0.1,1.8L149.1,52.3z"/>
			<path fill="#FFFFFF" d="M137.3,60.6c0,1.3,0.2,1.5,1.3,1.6c0.6,0.1,1.2,0.1,1.7,0.2l-1.2,0.7h-5.9c0.8-1,0.9-1.1,0.9-1.8v-0.8
				l0-20.1h-2.6l2.5-1.2h4.8c-1,0.6-1.4,1-1.5,2.2L137.3,60.6z"/>
			<path fill="#FFFFFF" d="M128.1,49.1c0.8,0.6,2.4,2,2.4,4.6c0,2.5-1.4,3.7-2.8,4.8c-0.4,0.4-0.9,0.9-0.9,1.7
				c0,0.7,0.5,1.2,0.9,1.5l1.2,0.9c1.5,1.3,2.8,2.4,2.8,4.7c0,3.2-3.1,6.4-8.9,6.4c-4.9,0-7.3-2.3-7.3-4.8c0-1.2,0.6-2.9,2.6-4.1
				c2.1-1.3,4.9-1.5,6.4-1.5c-0.5-0.6-1-1.3-1-2.3c0-0.6,0.2-0.9,0.3-1.3c-0.4,0-0.7,0.1-1.1,0.1c-3.6,0-5.6-2.7-5.6-5.3
				c0-1.6,0.7-3.3,2.2-4.5c1.9-1.6,4.2-1.9,6-1.9h7l-2.2,1.2H128.1z M125.7,64c-0.3,0-0.4,0-0.8,0c-0.3,0-2.1,0.1-3.5,0.5
				c-0.7,0.3-2.9,1.1-2.9,3.5c0,2.4,2.3,4.1,5.9,4.1c3.2,0,5-1.6,5-3.6C129.4,66.8,128.3,65.9,125.7,64z M126.7,57.6
				c0.8-0.8,0.8-1.9,0.8-2.5c0-2.4-1.4-6.2-4.3-6.2c-0.9,0-1.8,0.4-2.4,1.1c-0.6,0.7-0.7,1.6-0.7,2.5c0,2.3,1.3,6,4.2,6
				C125.3,58.6,126.2,58.2,126.7,57.6z"/>
			<path fill="#FFFFFF" d="M107.2,63.6c-5.4,0-8.2-4.2-8.2-8c0-4.4,3.6-8.2,8.7-8.2c5,0,8.1,3.9,8.1,8
				C115.8,59.4,112.7,63.6,107.2,63.6z M111.4,60.8c0.8-1.1,1-2.4,1-3.7c0-3-1.4-8.6-5.6-8.6c-1.1,0-2.2,0.4-3,1.1
				c-1.3,1.2-1.6,2.7-1.6,4.1c0,3.3,1.6,8.8,5.7,8.8C109.3,62.6,110.6,61.9,111.4,60.8z"/>
			<path fill="#FFFFFF" d="M89.2,63.6c-5.4,0-8.2-4.2-8.2-8c0-4.4,3.6-8.2,8.7-8.2c5,0,8.1,3.9,8.1,8C97.8,59.4,94.7,63.6,89.2,63.6
				z M93.5,60.8c0.8-1.1,1-2.4,1-3.7c0-3-1.4-8.6-5.6-8.6c-1.1,0-2.2,0.4-3,1.1c-1.3,1.2-1.6,2.7-1.6,4.1c0,3.3,1.7,8.8,5.7,8.8
				C91.3,62.6,92.7,61.9,93.5,60.8z"/>
			<path fill="#FFFFFF" d="M78.9,62.4l-4.5,1c-1.8,0.3-3.5,0.5-5.2,0.5c-8.7,0-12.1-6.4-12.1-11.5c0-6.1,4.7-11.8,12.8-11.8
				c1.7,0,3.3,0.3,4.8,0.7c2.4,0.7,3.5,1.5,4.2,2l-2.6,2.5l-1.1,0.2l0.8-1.3c-1.1-1-3-3-6.8-3c-5,0-8.8,3.8-8.8,9.3
				c0,5.9,4.3,11.5,11.2,11.5c2,0,3.1-0.4,4-0.8v-5.1l-4.8,0.3l2.5-1.4h6.7l-0.8,0.8C79,56.7,79,56.8,78.9,57c0,0.3-0.1,1.2-0.1,1.5
				V62.4z"/>
		</g>
		<g>
			<path fill="#FFFFFF" d="M163.7,61v8.6h-1.7V47.7h1.7v2.5c1.1-1.6,3.1-2.9,5.5-2.9c4.2,0,7.1,3.2,7.1,8.3c0,5-2.9,8.3-7.1,8.3
				C166.9,64,164.9,62.8,163.7,61z M174.4,55.6c0-3.8-2-6.8-5.5-6.8c-2.2,0-4.3,1.7-5.2,3.2v7c0.9,1.5,3,3.3,5.2,3.3
				C172.4,62.4,174.4,59.5,174.4,55.6z"/>
			<path fill="#FFFFFF" d="M178.6,63.6V41.7h1.7v21.9H178.6z"/>
			<path fill="#FFFFFF" d="M199.4,68.2c0.4,0.2,1,0.3,1.4,0.3c1,0,1.8-0.4,2.4-1.9l1.2-2.8l-6.7-16h1.9l5.8,13.8l5.7-13.8h1.9
				L204.9,67c-0.9,2-2.2,2.9-4,2.9c-0.6,0-1.3-0.1-1.7-0.2L199.4,68.2z"/>
			<path fill="#FFFFFF" d="M194.4,63.5c-0.1-0.5-0.2-1-0.3-1.4c-0.1-0.4-0.1-0.8-0.1-1.2c-0.6,0.9-1.4,1.6-2.5,2.1
				c-1.1,0.6-2.1,0.8-3.4,0.8c-1.7,0-3-0.4-3.9-1.2c-0.9-0.8-1.4-2-1.4-3.4c0-1.4,0.7-2.6,2-3.5c1.3-0.9,3.1-1.3,5.2-1.3h4v-2
				c0-1.1-0.4-2-1.2-2.7c-0.8-0.6-1.9-1-3.3-1c-1.3,0-2.3,0.3-3.1,0.9c-0.8,0.6-1.2,1.3-1.2,2.2h-1.7l0-0.1
				c-0.1-1.2,0.5-2.2,1.6-3.2c1.2-0.9,2.7-1.4,4.5-1.4c1.9,0,3.4,0.4,4.5,1.3c1.1,0.9,1.7,2.2,1.7,3.8v7.8c0,0.6,0,1.1,0.1,1.6
				c0.1,0.5,0.2,1.1,0.3,1.6H194.4z M188.4,62.3c1.5,0,2.5-0.3,3.6-1c1.1-0.6,1.8-1.5,2.2-2.5v-3h-4c-1.5,0-2.8,0.3-3.8,1
				c-1,0.7-1.5,1.5-1.5,2.5c0,0.9,0.3,1.6,1,2.2C186.4,62,187.3,62.3,188.4,62.3z"/>
		</g>
	</g>
	<g>
		<polygon fill="none" points="34.8,54.7 40.3,49.3 40.3,49.3 34.8,54.7 17.3,37.3 17.3,37.3 34.8,54.7 17.3,72.3 17.3,72.3 
			34.8,54.7 40.3,60.2 40.3,60.2 		"/>
		
			<linearGradient id="SVGID_1_" gradientUnits="userSpaceOnUse" x1="519.5719" y1="-432.9987" x2="496.4955" y2="-447.4409" gradientTransform="matrix(0.7071 0.7071 -0.7071 0.7071 -642.4706 -7.8798)">
			<stop  offset="0" style="stop-color:#D6FFA1"/>
			<stop  offset="0.3264" style="stop-color:#93E2A7"/>
			<stop  offset="1" style="stop-color:#00A3B5"/>
		</linearGradient>
		<path fill="url(#SVGID_1_)" d="M40.3,49.3L18.9,37.5c-0.6-0.3-1.2-0.4-1.6-0.3l17.5,17.5L40.3,49.3z"/>
		
			<linearGradient id="SVGID_2_" gradientUnits="userSpaceOnUse" x1="506.1548" y1="-445.3357" x2="536.0744" y2="-437.5144" gradientTransform="matrix(0.7071 0.7071 -0.7071 0.7071 -642.4706 -7.8798)">
			<stop  offset="0" style="stop-color:#FF177B"/>
			<stop  offset="0.6721" style="stop-color:#FFA976"/>
			<stop  offset="1" style="stop-color:#FFEC73"/>
		</linearGradient>
		<path fill="url(#SVGID_2_)" d="M40.3,60.2l7.3-4c1.5-0.8,1.5-2.1,0-3l-7.3-4l-5.5,5.5L40.3,60.2z"/>
		
			<linearGradient id="SVGID_3_" gradientUnits="userSpaceOnUse" x1="522.8575" y1="-422.0439" x2="490.4135" y2="-441.132" gradientTransform="matrix(0.7071 0.7071 -0.7071 0.7071 -642.4706 -7.8798)">
			<stop  offset="0" style="stop-color:#63FFD4"/>
			<stop  offset="0.4854" style="stop-color:#32A0BA"/>
			<stop  offset="0.8349" style="stop-color:#1262A9"/>
			<stop  offset="1" style="stop-color:#064AA2"/>
		</linearGradient>
		<path fill="url(#SVGID_3_)" d="M17.3,37.3c-0.6,0.2-1.1,0.9-1.1,1.9l0,31.3c0,1,0.4,1.6,1,1.8l17.5-17.5L17.3,37.3z"/>
		
			<linearGradient id="SVGID_4_" gradientUnits="userSpaceOnUse" x1="534.6367" y1="-437.1995" x2="514.6602" y2="-410.8814" gradientTransform="matrix(0.7071 0.7071 -0.7071 0.7071 -642.4706 -7.8798)">
			<stop  offset="0" style="stop-color:#FF4521"/>
			<stop  offset="0.3411" style="stop-color:#D43E65"/>
			<stop  offset="0.7935" style="stop-color:#9F36B9"/>
			<stop  offset="1" style="stop-color:#8A33DB"/>
		</linearGradient>
		<path fill="url(#SVGID_4_)" d="M17.3,72.3c0.5,0.2,1,0.1,1.6-0.3l21.4-11.7l-5.5-5.5L17.3,72.3z"/>
	</g>
	<g>
		<g>
			<path fill="#FFFFFF" d="M57.7,18.9c0.7-0.5,1.7-0.8,2.8-0.8c1.9,0,3.2,1,3.2,2.6c0,1.3-1,2.4-2.2,2.6v0c1.5,0.2,2.6,1.2,2.6,2.7
				c0,2.2-2,3.1-3.9,3.1c-1,0-2-0.2-2.8-0.7l0.4-1.1c0.6,0.3,1.5,0.7,2.4,0.7c1.6,0,2.5-0.9,2.5-2c0-1.6-1.6-2.1-2.9-2.1h-0.6v-1.1
				h0.6c1.4,0,2.5-0.9,2.5-2s-0.8-1.7-1.9-1.7c-0.8,0-1.7,0.3-2.3,0.7L57.7,18.9z"/>
			<path fill="#FFFFFF" d="M68.2,25.7L67,29.1h-1.4l3.7-10.8H71l3.7,10.8h-1.5L72,25.7H68.2z M71.7,24.6l-1.1-3.1
				c-0.2-0.7-0.4-1.3-0.6-2h0c-0.2,0.6-0.3,1.3-0.5,2l-1.1,3.1H71.7z"/>
			<path fill="#FFFFFF" d="M82.3,18.3v1.2H78v9.6h-1.4V18.3H82.3z"/>
			<path fill="#FFFFFF" d="M83.9,18.4c0.7-0.1,1.6-0.2,2.7-0.2c1.4,0,2.4,0.3,3,0.9c0.6,0.5,0.9,1.3,0.9,2.3c0,1-0.3,1.7-0.8,2.3
				c-0.8,0.8-1.9,1.2-3.3,1.2c-0.4,0-0.8,0-1.1-0.1v4.3h-1.4V18.4z M85.3,23.6c0.3,0.1,0.7,0.1,1.2,0.1c1.7,0,2.7-0.8,2.7-2.3
				c0-1.4-1-2.1-2.5-2.1c-0.6,0-1.1,0-1.3,0.1V23.6z"/>
			<path fill="#FFFFFF" d="M93.1,18.3l2.1,4.6c0.3,0.6,0.5,1.3,0.8,1.9h0c0.2-0.5,0.4-1.2,0.7-1.9l1.7-4.6h1.5l-2.3,5.6
				c-0.6,1.4-1.2,3.1-2,4.1c-0.7,0.9-1.5,1.3-2.4,1.3c-0.4,0-0.6,0-0.8-0.1l0.1-1.1c0.1,0,0.3,0,0.5,0c1.1,0,1.8-1.1,2.1-1.8
				c0.1-0.2,0.1-0.4,0-0.7l-3.6-7.3H93.1z"/>
			<path fill="#FFFFFF" d="M101.2,18.9c0.7-0.5,1.7-0.8,2.8-0.8c1.9,0,3.2,1,3.2,2.6c0,1.3-1,2.4-2.2,2.6v0c1.5,0.2,2.6,1.2,2.6,2.7
				c0,2.2-2,3.1-3.9,3.1c-1,0-2-0.2-2.8-0.7l0.4-1.1c0.6,0.3,1.5,0.7,2.4,0.7c1.6,0,2.5-0.9,2.5-2c0-1.6-1.6-2.1-2.9-2.1h-0.6v-1.1
				h0.6c1.4,0,2.5-0.9,2.5-2s-0.8-1.7-1.9-1.7c-0.8,0-1.7,0.3-2.3,0.7L101.2,18.9z"/>
			<path fill="#FFFFFF" d="M111.2,18.3v4.5c0,1.7,0,3.1-0.1,4.6l0,0c0.5-1.1,1.2-2.3,2-3.6l3.5-5.6h1.4v10.8h-1.3v-4.6
				c0-1.7,0-3,0.1-4.4l0,0c-0.5,1.2-1.3,2.4-2,3.6l-3.4,5.4h-1.5V18.3H111.2z"/>
			<path fill="#FFFFFF" d="M122.8,19.5h-3.3v-1.2h8v1.2h-3.3v9.6h-1.4V19.5z"/>
			<path fill="#FFFFFF" d="M134.7,24h-4.2v3.9h4.7v1.2h-6.1V18.3h5.8v1.2h-4.4v3.4h4.2V24z"/>
			<path fill="#FFFFFF" d="M143.3,18.3v4.5h5.2v-4.5h1.4v10.8h-1.4V24h-5.2v5.1h-1.4V18.3H143.3z"/>
			<path fill="#FFFFFF" d="M154.5,25.7l-1.1,3.4h-1.4l3.7-10.8h1.7l3.7,10.8h-1.5l-1.2-3.4H154.5z M158.1,24.6l-1.1-3.1
				c-0.2-0.7-0.4-1.3-0.6-2h0c-0.2,0.6-0.3,1.3-0.5,2l-1.1,3.1H158.1z"/>
		</g>
	</g>
</g>
</svg>
