<?xml version="1.0" encoding="utf-8"?>
<!-- Generator: Adobe Illustrator 17.1.0, SVG Export Plug-In . SVG Version: 6.00 Build 0)  -->
<!DOCTYPE svg PUBLIC "-//W3C//DTD SVG 1.1//EN" "http://www.w3.org/Graphics/SVG/1.1/DTD/svg11.dtd">
<svg version="1.1" id="Layer_1" xmlns="http://www.w3.org/2000/svg" xmlns:xlink="http://www.w3.org/1999/xlink" x="0px" y="0px"
	 width="780px" height="1100px" viewBox="0 0 780 1100" enable-background="new 0 0 780 1100" xml:space="preserve">
<g>
	<g>
		<path fill="#EDEDE8" d="M733.8,9H44.5c-9.6,0-18.7,3.9-25.7,11C11.9,27.1,8,36.6,8,46.6v1006.9c0,20.7,18.4,37.6,40.9,37.6h682.2
			c11,0,21.3-3.9,28.9-11.1c7.7-7.3,12-17.4,12-28.5V46.6c0-10.1-3.9-19.5-11-26.5C753.8,12.9,744.2,9,733.8,9z"/>
	</g>
	<g>
		<linearGradient id="SVGID_1_" gradientUnits="userSpaceOnUse" x1="6" y1="550" x2="774" y2="550">
			<stop  offset="0" style="stop-color:#999999"/>
			<stop  offset="0.5" style="stop-color:#A6A6A6"/>
			<stop  offset="1" style="stop-color:#999999"/>
		</linearGradient>
		<path fill="url(#SVGID_1_)" d="M733.8,9c10.4,0,20,3.9,27.2,11c7.1,7,11,16.5,11,26.5v1004.8c0,11.1-4.3,21.2-12,28.5
			c-7.6,7.2-17.8,11.1-28.9,11.1H48.9c-22.6,0-40.9-16.8-40.9-37.6V46.6c0-10,3.9-19.4,10.9-26.6c6.9-7.1,16.1-11,25.7-11H733.8
			 M733.8,7H44.5c-10.1,0-19.8,4.1-27.1,11.6C10.1,26.1,6,36,6,46.6v1006.9c0,21.8,19.3,39.6,42.9,39.6h682.2
			c11.5,0,22.3-4.1,30.2-11.7c8.1-7.7,12.6-18.3,12.6-30V46.6c0-10.6-4.1-20.5-11.6-28C754.8,11.1,744.7,7,733.8,7L733.8,7z"/>
	</g>
</g>
<rect x="57" y="105" fill="#3097D4" width="668" height="890"/>
<circle cx="391" cy="63" r="9"/>
<linearGradient id="SVGID_2_" gradientUnits="userSpaceOnUse" x1="391" y1="1074" x2="391" y2="1018">
	<stop  offset="0" style="stop-color:#C8C7BD"/>
	<stop  offset="0.5" style="stop-color:#E8E8DD"/>
	<stop  offset="1" style="stop-color:#F8F8EE"/>
</linearGradient>
<path fill="url(#SVGID_2_)" stroke="#C8C7BD" stroke-miterlimit="10" d="M419,1046c0,15.5-12.5,28-28,28c-15.5,0-28-12.5-28-28
	c0-15.5,12.5-28,28-28C406.5,1018,419,1030.5,419,1046z"/>
<g>
	<g>
		<path fill="#848481" d="M397.9,1036h-13.9c-2.3,0-4.1,1.8-4.1,4.1v13.9c0,2.2,1.8,4.1,4.1,4.1h13.9c2.3,0,4.1-1.8,4.1-4.1v-13.9
			C402,1037.8,400.2,1036,397.9,1036z M400.2,1053.8c0,1.3-1.1,2.4-2.4,2.4h-13.6c-1.3,0-2.4-1.1-2.4-2.4v-13.6
			c0-1.3,1.1-2.4,2.4-2.4h13.6c1.3,0,2.4,1.1,2.4,2.4V1053.8z"/>
	</g>
</g>
<g>
	<g>
		<path fill="#FFFFFF" d="M455.8,651c6.7,0,12.2,5.4,12.2,12s-5.5,12-12.2,12H324.2c-6.7,0-12.2-5.4-12.2-12s5.5-12,12.2-12H455.8
			 M455.8,650H324.2c-7.3,0-13.2,5.8-13.2,13s5.9,13,13.2,13h131.7c7.3,0,13.2-5.8,13.2-13S463.1,650,455.8,650L455.8,650z"/>
	</g>
	<path fill="#FFFFFF" d="M411,672h-86.8c-5.1,0-9.2-4-9.2-9l0,0c0-5,4.1-9,9.2-9H411V672z"/>
</g>
<g>
	<linearGradient id="SVGID_3_" gradientUnits="userSpaceOnUse" x1="493.3333" y1="514" x2="283.8472" y2="514">
		<stop  offset="0" style="stop-color:#0D5893"/>
		<stop  offset="1" style="stop-color:#2C88C8"/>
	</linearGradient>
	<path fill="url(#SVGID_3_)" d="M495,586.9c0,18.3-14.8,33.1-33.1,33.1H316.1c-18.3,0-33.1-14.8-33.1-33.1V441.1
		c0-18.3,14.8-33.1,33.1-33.1h145.8c18.3,0,33.1,14.8,33.1,33.1V586.9z"/>
	<path fill="#67C3FD" d="M495,575.9c0,18.3-14.8,33.1-33.1,33.1H316.1c-18.3,0-33.1-14.8-33.1-33.1V441.1
		c0-18.3,14.8-33.1,33.1-33.1h145.8c18.3,0,33.1,14.8,33.1,33.1V575.9z"/>
	<path fill="#3AA2E6" d="M474.7,410.6L289.1,595c6,8.5,15.9,14,27,14h145.8c18.3,0,33.1-14.8,33.1-33.1V441.1
		C495,427.4,486.6,415.6,474.7,410.6z"/>
	<linearGradient id="SVGID_4_" gradientUnits="userSpaceOnUse" x1="367.5388" y1="503.7826" x2="500.6693" y2="636.9131">
		<stop  offset="0" style="stop-color:#0D5893;stop-opacity:0.9"/>
		<stop  offset="1" style="stop-color:#3AA2E6;stop-opacity:0"/>
	</linearGradient>
	<path fill="url(#SVGID_4_)" d="M456.6,497.8l-10.3-0.3l-35.3-35.3L327,484l21.7,21.7l1.6,12.6l6.3,12.8l5.4,2.8l-37,22.5l52.8,52.8
		h84.2c18.3,0,33.1-14.8,33.1-33.1v-39.7L456.6,497.8z"/>
	<path fill="#FFFFFF" d="M412,486c0,1.1-0.9,2-2,2h-84c-1.1,0-2-0.9-2-2v-22c0-1.1,0.9-2,2-2h84c1.1,0,2,0.9,2,2V486z"/>
	<path fill="#FFFFFF" d="M457,521c0,1.1-0.9,2-2,2H349c-1.1,0-2-0.9-2-2v-22c0-1.1,0.9-2,2-2h106c1.1,0,2,0.9,2,2V521z"/>
	<path fill="#FFFFFF" d="M438,555c0,1.1-0.9,2-2,2H326c-1.1,0-2-0.9-2-2v-22c0-1.1,0.9-2,2-2h110c1.1,0,2,0.9,2,2V555z"/>
</g>
<g opacity="0.16">
	<g>
		<linearGradient id="SVGID_5_" gradientUnits="userSpaceOnUse" x1="114.2733" y1="550" x2="772" y2="550">
			<stop  offset="0" style="stop-color:#FFFFFF;stop-opacity:0.7"/>
			<stop  offset="1" style="stop-color:#FFFFFF;stop-opacity:0.5"/>
		</linearGradient>
		<path fill="url(#SVGID_5_)" d="M733.8,9H114.3l588.9,1082h28c11,0,21.3-3.9,28.9-11.1c7.7-7.3,12-17.4,12-28.5V46.6
			c0-10.1-3.9-19.5-11-26.5C753.8,12.9,744.2,9,733.8,9z"/>
	</g>
</g>
</svg>
