<?xml version="1.0" encoding="utf-8"?>
<!-- Generator: Adobe Illustrator 17.1.0, SVG Export Plug-In . SVG Version: 6.00 Build 0)  -->
<!DOCTYPE svg PUBLIC "-//W3C//DTD SVG 1.1//EN" "http://www.w3.org/Graphics/SVG/1.1/DTD/svg11.dtd">
<svg version="1.1" id="Layer_1" xmlns="http://www.w3.org/2000/svg" xmlns:xlink="http://www.w3.org/1999/xlink" x="0px" y="0px"
	 width="376px" height="166px" viewBox="0 0 376 166" enable-background="new 0 0 376 166" xml:space="preserve">
<g>
	<g>
		<g>
			<path fill="#3097D4" d="M38.6,38.9l0.1,0.2c0.1,4.9-1.6,8.9-5.1,12.2c-3.5,3.3-8.1,4.9-13.8,4.9c-5.8,0-10.6-2.1-14.2-6.2
				S0,40.6,0,34.2V25c0-6.4,1.8-11.6,5.5-15.8s8.4-6.2,14.2-6.2s10.5,1.6,13.9,4.7c3.4,3.1,5.1,7.2,5,12.4l-0.1,0.2h-6.7
				c0-3.6-1.1-6.5-3.2-8.6c-2.1-2.1-5.1-3.2-9-3.2c-3.9,0-7,1.6-9.3,4.7C8.1,16.3,7,20.2,7,24.9v9.3c0,4.7,1.2,8.6,3.5,11.8
				c2.3,3.2,5.4,4.7,9.3,4.7c3.9,0,6.9-1,9-3.1c2.1-2.1,3.2-5,3.2-8.7H38.6z"/>
			<path fill="#3097D4" d="M41.5,35.9c0-5.7,1.5-10.4,4.6-14.1c3.1-3.7,7.2-5.5,12.5-5.5c5.3,0,9.5,1.8,12.6,5.5
				c3.1,3.7,4.6,8.4,4.6,14.1v0.8c0,5.7-1.5,10.4-4.6,14.1c-3.1,3.6-7.2,5.5-12.5,5.5s-9.5-1.8-12.5-5.5c-3.1-3.7-4.6-8.3-4.6-14.1
				V35.9z M48.5,36.6c0,4.1,0.9,7.4,2.6,10.1c1.7,2.7,4.3,4,7.6,4c3.3,0,5.9-1.3,7.6-4c1.7-2.7,2.6-6,2.6-10.1v-0.8
				c0-4-0.9-7.4-2.6-10.1c-1.7-2.7-4.3-4-7.6-4c-3.3,0-5.8,1.3-7.6,4c-1.7,2.7-2.6,6-2.6,10.1V36.6z"/>
			<path fill="#EE6F39" d="M87,17l0.5,5c1.3-1.8,2.8-3.2,4.8-4.2c1.9-1,4.2-1.5,6.7-1.5c2.5,0,4.7,0.6,6.6,1.8
				c1.8,1.2,3.2,3,4.1,5.3c1.2-2.2,2.8-3.9,4.8-5.2c2-1.3,4.3-1.9,6.9-1.9c3.9,0,7,1.3,9.2,4c2.3,2.7,3.4,6.7,3.4,12.1v23h-7V32.4
				c0-3.8-0.6-6.5-1.9-8c-1.3-1.6-3.2-2.4-5.8-2.4c-2.4,0-4.3,0.8-5.8,2.5c-1.5,1.7-2.3,3.8-2.6,6.3V31v24.4h-7V32.4
				c0-3.6-0.7-6.2-2-7.9c-1.3-1.7-3.3-2.5-5.8-2.5c-2.1,0-3.9,0.4-5.2,1.3c-1.4,0.9-2.4,2.1-3.2,3.7v28.5h-7V17H87z"/>
			<path fill="#EE6F39" d="M148,55.4h-7V17h7V55.4z"/>
			<path fill="#EE6F39" d="M161.3,17l0.5,5.7c1.3-2,2.9-3.6,4.8-4.7c1.9-1.1,4.1-1.7,6.6-1.7c4.1,0,7.3,1.2,9.6,3.6
				c2.3,2.4,3.4,6.2,3.4,11.2v24.3h-7V31.3c0-3.4-0.7-5.8-2-7.2c-1.3-1.4-3.4-2.1-6.1-2.1c-2.1,0-4,0.4-5.5,1.3
				c-1.5,0.9-2.7,2.1-3.6,3.6v28.5h-7V17H161.3z"/>
			<path fill="#EE6F39" d="M191.1,36.9c0-6.2,1.3-11.2,3.9-15c2.6-3.8,6.3-5.7,11.1-5.7c2.2,0,4.2,0.4,6,1.2c1.7,0.8,3.2,2,4.4,3.6
				V0h7v55.4h-5.3l-1.1-4.9c-1.3,1.8-2.8,3.2-4.6,4.2c-1.8,0.9-4,1.4-6.4,1.4c-4.7,0-8.3-1.7-11-5.1c-2.6-3.4-4-7.9-4-13.4V36.9z
				 M198.1,37.7c0,3.9,0.8,7,2.4,9.3c1.6,2.3,4,3.5,7.4,3.5c2.1,0,3.8-0.5,5.2-1.4s2.6-2.3,3.5-4V27.2c-0.9-1.6-2.1-2.8-3.5-3.8
				c-1.4-0.9-3.1-1.4-5.1-1.4c-3.4,0-5.8,1.4-7.4,4.2c-1.6,2.8-2.4,6.4-2.4,10.8V37.7z"/>
			<path fill="#3097D4" d="M240.1,41.4l0.9,4.9h0.2l0.9-4.9l7.6-24.4h5.6l7.7,24.4l1,5.5h0.2l1.1-5.5L271,17h7.3l-11.1,38.5h-5.6
				L254,32l-1.5-6.1h-0.2L251,32l-7.4,23.4h-5.6L226.8,17h7.3L240.1,41.4z"/>
			<path fill="#3097D4" d="M305,55.4c-0.2-1.2-0.4-2.2-0.5-3.1c-0.1-0.9-0.2-1.8-0.2-2.7c-1.3,1.8-3,3.4-5.1,4.6
				c-2.1,1.2-4.3,1.9-6.7,1.9c-4,0-7-1-9.1-3.1c-2.1-2-3.1-4.9-3.1-8.5c0-3.7,1.5-6.5,4.4-8.6c3-2.1,7-3.1,12.1-3.1h7.6v-3.8
				c0-2.3-0.7-4-2.1-5.3c-1.4-1.3-3.3-2-5.8-2c-2.3,0-4.1,0.6-5.5,1.7c-1.4,1.1-2.1,2.5-2.1,4.1l-6.6,0.1l-0.1-0.2
				c-0.2-2.8,1.1-5.4,3.9-7.7c2.8-2.3,6.4-3.5,10.7-3.5c4.3,0,7.8,1.1,10.5,3.3c2.6,2.2,4,5.4,4,9.6v18.5c0,1.4,0.1,2.7,0.2,4
				c0.1,1.3,0.4,2.5,0.8,3.8H305z M293.5,50.3c2.5,0,4.8-0.7,6.8-2c2-1.3,3.4-2.8,4-4.5v-6.3h-7.8c-2.8,0-5.1,0.7-6.7,2.1
				c-1.7,1.4-2.5,3.1-2.5,5c0,1.7,0.5,3.1,1.6,4.1C289.8,49.8,291.4,50.3,293.5,50.3z"/>
			<path fill="#3097D4" d="M335.8,23.2l-3.6-0.2c-1.8,0-3.4,0.4-4.7,1.3c-1.3,0.9-2.2,2.1-2.9,3.7v27.5h-7V17h6.2l0.7,5.6
				c1.1-2,2.4-3.5,4-4.7c1.6-1.1,3.4-1.7,5.5-1.7c0.5,0,1,0,1.5,0.1c0.5,0.1,0.9,0.2,1.2,0.3L335.8,23.2z"/>
			<path fill="#3097D4" d="M354.7,56.2c-5.5,0-9.8-1.8-12.9-5.3c-3.1-3.5-4.6-8.2-4.6-13.9v-1.6c0-5.5,1.6-10.1,4.8-13.7
				c3.2-3.6,7-5.4,11.6-5.4c5.1,0,9,1.6,11.5,4.8c2.6,3.2,3.8,7.5,3.8,12.8v3.7h-24.5l-0.1,0.2c0,3.9,0.8,7,2.5,9.4
				c1.7,2.4,4.3,3.6,7.8,3.6c2.4,0,4.4-0.3,6.2-1c1.8-0.7,3.3-1.6,4.6-2.8l2.7,4.5c-1.4,1.3-3.2,2.4-5.4,3.4
				C360.5,55.7,357.8,56.2,354.7,56.2z M353.6,21.8c-2.4,0-4.4,0.9-6,2.8c-1.6,1.9-2.6,4.3-2.9,7.2l0.1,0.2h17.3v-0.6
				c0-2.8-0.7-5.1-2.1-6.9C358.5,22.7,356.4,21.8,353.6,21.8z"/>
			<rect x="141" fill="#3097D4" width="7" height="7.1"/>
		</g>
		<path fill="#EE6F39" d="M90.7,114.6V144h-9.9V70.7h27.9c7.8,0,13.8,2,18.2,6c4.3,4,6.5,9.3,6.5,15.9c0,6.6-2.2,12-6.5,16
			c-4.3,4-10.4,6-18.2,6H90.7z M90.7,106.8h18.1c4.9,0,8.6-1.3,11.1-4c2.4-2.7,3.7-6,3.7-10.1c0-4.1-1.2-7.5-3.7-10.2
			c-2.5-2.7-6.1-4.1-11.1-4.1H90.7V106.8z"/>
		<path fill="#EE6F39" d="M165.3,98.3l-5.1-0.3c-2.6,0-4.8,0.6-6.6,1.9c-1.8,1.2-3.2,3-4.1,5.2V144h-9.9V89.5h8.8l1,8
			c1.5-2.8,3.4-5,5.7-6.6c2.3-1.6,4.9-2.4,7.8-2.4c0.7,0,1.4,0.1,2.1,0.2c0.7,0.1,1.2,0.2,1.7,0.4L165.3,98.3z"/>
		<path fill="#EE6F39" d="M167.1,116.3c0-8.1,2.2-14.7,6.5-19.9c4.3-5.2,10.2-7.8,17.7-7.8c7.5,0,13.5,2.6,17.8,7.8
			c4.4,5.2,6.5,11.8,6.5,19.9v1.1c0,8.1-2.2,14.8-6.5,19.9c-4.3,5.2-10.3,7.8-17.7,7.8c-7.5,0-13.4-2.6-17.8-7.8
			c-4.4-5.2-6.5-11.8-6.5-19.9V116.3z M177,117.4c0,5.8,1.2,10.5,3.6,14.3c2.4,3.8,6,5.6,10.8,5.6c4.7,0,8.3-1.9,10.7-5.6
			c2.4-3.8,3.7-8.5,3.7-14.3v-1.1c0-5.7-1.2-10.5-3.7-14.2c-2.5-3.8-6.1-5.7-10.8-5.7c-4.7,0-8.3,1.9-10.7,5.7
			c-2.4,3.8-3.6,8.5-3.6,14.2V117.4z"/>
		<path fill="#EE6F39" d="M234,89.5v59c0,5.6-1.4,9.9-4.3,13c-2.9,3-6.9,4.6-12,4.6c-1,0-2-0.1-2.8-0.2c-0.9-0.2-1.8-0.4-2.7-0.7
			l0.7-7.8c0.5,0.2,1.1,0.3,2,0.4c0.9,0.1,1.6,0.2,2.2,0.2c2.2,0,3.9-0.7,5.2-2.2c1.3-1.5,1.9-3.9,1.9-7.2v-59H234z M233.7,75.4
			h-9.9v-9.9h9.9V75.4z"/>
		<path fill="#EE6F39" d="M266.5,145.1c-7.8,0-13.9-2.5-18.2-7.5c-4.4-5-6.5-11.6-6.5-19.7v-2.2c0-7.8,2.2-14.3,6.7-19.4
			c4.5-5.1,10-7.7,16.5-7.7c7.3,0,12.7,2.3,16.3,6.8c3.6,4.5,5.4,10.6,5.4,18.1v5.2H252l-0.2,0.3c0,5.5,1.2,9.9,3.6,13.3
			c2.4,3.4,6.1,5.1,11,5.1c3.3,0,6.3-0.5,8.8-1.4c2.5-1,4.7-2.3,6.5-4l3.9,6.4c-1.9,1.9-4.5,3.5-7.7,4.8
			C274.8,144.4,271,145.1,266.5,145.1z M265,96.3c-3.4,0-6.3,1.3-8.5,4c-2.3,2.7-3.6,6.1-4.1,10.2l0.1,0.3h24.5V110
			c0-4-1-7.2-2.9-9.8C272,97.6,269,96.3,265,96.3z"/>
		<path fill="#EE6F39" d="M315.8,137.3c3,0,5.7-1,8-3c2.3-2,3.4-4.5,3.4-7.5h8.9l0.2,0.3c0.1,4.7-1.9,8.9-6,12.5
			c-4.1,3.6-9,5.5-14.4,5.5c-7.6,0-13.5-2.6-17.6-7.8c-4.1-5.2-6.2-11.7-6.2-19.4v-2.1c0-7.7,2.1-14.1,6.2-19.4
			c4.2-5.2,10-7.8,17.6-7.8c6,0,11,1.9,14.9,5.6c3.9,3.8,5.7,8.4,5.6,13.8l-0.1,0.3h-9c0-3.3-1.1-6.1-3.2-8.5
			c-2.2-2.3-4.9-3.5-8.1-3.5c-4.8,0-8.4,1.9-10.6,5.7c-2.2,3.8-3.3,8.3-3.3,13.7v2.1c0,5.5,1.1,10.1,3.3,13.8
			C307.3,135.4,310.8,137.3,315.8,137.3z"/>
		<path fill="#EE6F39" d="M356.5,76.4v13.1h10.3v7.4h-10.3V130c0,2.6,0.5,4.3,1.6,5.4c1.1,1,2.4,1.6,4.2,1.6c0.6,0,1.2-0.1,1.9-0.2
			c0.7-0.2,1.3-0.3,1.8-0.5l1.4,6.8c-0.7,0.6-1.8,1.1-3.3,1.5c-1.4,0.4-2.9,0.6-4.3,0.6c-4,0-7.2-1.2-9.6-3.6
			c-2.4-2.4-3.6-6.2-3.6-11.5V96.9H338v-7.4h8.6V76.4H356.5z"/>
	</g>
	<g>
		<path fill="#3097D4" d="M366.8,66.5h-2.5V73H363v-6.4h-2.4v-1.1h6.3V66.5z"/>
		<path fill="#3097D4" d="M371.8,71.2L371.8,71.2l2.5-5.7h1.7V73h-1.4v-5.2l0,0l-2.3,5.2h-0.9l-2.3-5.3l0,0V73h-1.4v-7.5h1.8
			L371.8,71.2z"/>
	</g>
</g>
</svg>
