<svg xmlns="http://www.w3.org/2000/svg" xmlns:xlink="http://www.w3.org/1999/xlink" version="1.2" baseProfile="tiny" id="Layer_1" x="0px" y="0px" width="16px" height="16px" viewBox="0 0 16 16" xml:space="preserve">
<path fill-rule="evenodd" class="svg-nav svg-nav_settings" d="M16 7v2h-2.1c-0.2 0.9-0.5 1.7-1 2.5l1.5 1.5l-1.4 1.4l-1.5-1.5c-0.7 0.5-1.6 0.9-2.5 1 V16H7v-2.1c-0.9-0.2-1.7-0.5-2.5-1l-1.5 1.5l-1.4-1.4l1.5-1.5c-0.5-0.7-0.9-1.6-1-2.5H0V7h2.1c0.2-0.9 0.5-1.7 1-2.5L1.6 3.1 l1.4-1.4l1.5 1.5c0.7-0.5 1.6-0.9 2.5-1V0h2v2.1c0.9 0.2 1.7 0.5 2.5 1l1.5-1.5l1.4 1.4l-1.5 1.5c0.5 0.7 0.9 1.6 1 2.5H16z M12 8 c0-2.2-1.8-4-4-4C6.9 4 5.9 4.4 5.2 5.2l0 0C4.4 5.9 4 6.9 4 8l0 0c0 1.1 0.4 2.1 1.2 2.8l0 0C5.9 11.6 6.9 12 8 12 C10.2 12 12 10.2 12 8L12 8z M8 10c-1.1 0-2-0.9-2-2s0.9-2 2-2c1.1 0 2 0.9 2 2S9.1 10 8 10z"/>
</svg>
